<svg viewBox="0 0 128 128" height="100%" width="100%" stroke-miterlimit="10" style="fill-rule:nonzero;clip-rule:evenodd;stroke-linecap:round;stroke-linejoin:round;" version="1.1" xml:space="preserve" xmlns="http://www.w3.org/2000/svg" xmlns:xlink="http://www.w3.org/1999/xlink">
<path d="M113.64 35.5861C114.989 36.9319 114.989 39.1456 113.64 40.4914C112.289 41.8362 110.068 41.8362 108.718 40.4914C108.074 39.8422 107.712 38.9654 107.712 38.0528C107.712 36.1495 109.285 34.5833 111.194 34.5833C112.109 34.5833 112.989 34.9429 113.64 35.5836L113.64 35.5861ZM92.3417 24.4966C94.9475 25.0166 97.4955 25.7912 99.9492 26.8093C101.663 27.5196 102.49 29.5169 101.782 31.2342C101.26 32.4976 100.024 33.3258 98.6592 33.3258C98.2157 33.3258 97.7759 33.2381 97.3654 33.0677L97.359 33.0677C95.3424 32.2301 93.2488 31.5903 91.1085 31.1571C91.0514 31.1471 90.9954 31.1359 90.9383 31.1234C88.8511 30.7129 86.7299 30.5008 84.6029 30.49L84.429 30.49C79.6049 30.4897 75.1326 27.9031 72.7197 23.7174C72.7047 23.6913 72.6886 23.6639 72.675 23.6365C70.4615 19.8175 67.5244 16.4685 64.0289 13.7784C49.219 2.39112 28.004 5.18987 16.6351 20.0306C15.9956 20.8666 15.0023 21.3576 13.9512 21.3576C12.0961 21.3576 10.5696 19.828 10.5696 17.9694C10.5696 17.2243 10.8149 16.4994 11.2673 15.9081C11.3021 15.8633 11.3381 15.8197 11.3741 15.7762C14.6011 11.5995 18.6098 8.09279 23.1754 5.4525C42.5706-5.77047 67.3731 0.88751 78.5793 20.3219L78.5793 20.3281L78.6078 20.3766C79.7928 22.3981 81.9444 23.664 84.2836 23.7162L84.434 23.7162C87.0907 23.7161 89.7412 23.9775 92.3472 24.4966L92.3417 24.4966ZM8.39411 67.811C8.42269 67.7563 8.455 67.7017 8.48731 67.6482C9.63782 65.593 9.63452 63.0794 8.47861 61.0273C8.44506 60.9713 8.41399 60.9154 8.38292 60.8594C3.05264 51.5631 1.61578 40.5239 4.38881 30.1729C4.78382 28.6992 6.12955 27.6667 7.65531 27.6667C9.51047 27.6667 11.0371 29.1931 11.0371 31.0483C11.0371 31.344 10.9983 31.6383 10.9218 31.9238C8.61059 40.5532 9.81099 49.7563 14.2585 57.5043C14.2958 57.5664 14.3319 57.6298 14.3666 57.6944C16.6949 61.8222 16.6907 66.8832 14.3554 71.0072C14.312 71.0854 14.2672 71.1638 14.2175 71.2395C12.0426 75.0511 10.6298 79.2494 10.0581 83.6004C7.62114 102.116 20.6536 119.095 39.1701 121.533L39.1701 121.54C40.8442 121.761 42.1096 123.203 42.1096 124.892C42.1096 125.039 42.0999 125.187 42.0806 125.333C41.8387 127.17 40.1299 128.483 38.2927 128.244L38.299 128.244C33.0154 127.548 27.9207 125.817 23.3068 123.15C3.91534 111.966-2.74316 87.2042 8.39411 67.811ZM14.2298 71.8063C14.3168 71.7309 14.3969 71.6514 14.4697 71.5683L14.479 71.5573C14.4034 71.6441 14.3202 71.7273 14.2298 71.8063ZM54.0717 127.527C52.2228 128.019 50.2933 126.914 49.7972 125.08C49.3011 123.243 50.4153 121.327 52.2654 120.835C52.5471 120.763 52.8367 120.728 53.1273 120.728C55.0422 120.728 56.618 122.292 56.618 124.192C56.618 125.739 55.5736 127.107 54.0729 127.527L54.0717 127.527ZM84.708 104.739C82.3223 104.739 80.1059 105.997 78.8844 108.043C78.8694 108.072 78.8532 108.1 78.837 108.127C77.505 110.431 75.9495 112.597 74.1931 114.596C74.7561 113.954 74.7574 113.957 74.1931 114.596C74.1582 114.635 74.1233 114.674 74.0872 114.712C72.3579 116.664 70.4444 118.446 68.3732 120.033C66.8987 121.164 64.7535 120.883 63.6208 119.411C62.4889 117.938 62.7701 115.797 64.2437 114.666C66.0051 113.316 67.6294 111.796 69.0931 110.129C68.5501 110.752 68.5488 110.743 69.0931 110.129C69.1356 110.082 69.1779 110.036 69.2177 109.992C70.6055 108.394 71.8399 106.669 72.905 104.84C72.9249 104.802 72.9461 104.767 72.9672 104.729C75.3878 100.553 79.869 97.9728 84.7018 97.9728C89.1531 97.9728 93.5612 97.0969 97.6733 95.3955C114.932 88.2568 123.149 68.5277 116.061 51.2788C116.046 51.2465 116.031 51.2129 116.017 51.1792C115.855 50.7774 115.772 50.3481 115.772 49.9148C115.772 48.0582 117.302 46.5303 119.162 46.5303C120.516 46.5303 121.745 47.341 122.279 48.5846C124.323 53.5139 125.375 58.7975 125.375 64.133C125.375 86.5639 107.165 104.748 84.7005 104.748L84.708 104.739ZM81.4225 37.5989C82.318 37.5013 83.2167 37.4477 84.1187 37.4377C84.211 37.4368 84.3033 37.4363 84.3957 37.4363C99.263 37.4363 111.497 49.6276 111.497 64.4432C111.497 79.2587 99.263 91.4502 84.3957 91.4502C83.4045 91.4502 82.414 91.3959 81.4287 91.2877C75.8651 90.8618 70.5812 93.9002 68.1679 98.9138C63.853 108.711 54.0862 115.068 43.3498 115.068C28.4815 115.068 16.2468 102.877 16.2468 88.06C16.2468 82.2542 18.1254 76.6003 21.6025 71.9418C24.6692 67.3553 24.6281 61.3393 21.4991 56.7948C21.1755 56.354 20.8655 55.9045 20.5692 55.4464C17.7578 51.0901 16.2626 46.0185 16.2626 40.839C16.2626 26.0241 28.4961 13.8333 43.3631 13.8333C54.0943 13.8333 63.8571 20.185 68.1741 29.9752C70.5871 34.9839 75.8655 38.0207 81.425 37.5989L81.4225 37.5989ZM26.4944 98.562C30.0981 104.878 36.78 108.781 43.9879 108.781C55.0691 108.781 64.1875 99.5552 64.1875 88.3447C64.1875 77.134 55.0691 67.9091 43.9879 67.9091C40.4421 67.9091 36.9582 68.8536 33.8875 70.6473C24.2924 76.2537 20.9554 88.8537 26.4944 98.562ZM66.8652 74.6679C70.4689 80.9832 77.151 84.8864 84.359 84.8864C95.4404 84.8864 104.559 75.6615 104.559 64.4507C104.559 53.2401 95.4404 44.0151 84.359 44.0151C80.8136 44.0151 77.33 44.9595 74.2596 46.7528C64.6641 52.3587 61.3265 64.9588 66.8652 74.6679ZM44.0081 60.9924C55.0792 60.9889 64.1875 51.765 64.1875 40.5568C64.1875 29.3462 55.0754 20.1212 44.002 20.1212C32.9284 20.1212 23.8164 29.3462 23.8164 40.5568C23.8164 40.5581 23.8164 40.5593 23.8164 40.5606C23.8191 51.77 32.9309 60.9924 44.0032 60.9924C44.0048 60.9924 44.0064 60.9924 44.0081 60.9924Z" fill-rule="evenodd" stroke="none"/>
</svg>
